Doctor Who 2005 - Season 07 Episode 09

Something terrifying is hiding in Caliburn House, and the Doctor finds himself part of the ghost hunt.

Subtitles: http://www.addic7ed.com/serie/Doctor_Who/7/9/Hide

General
Format                                   : Matroska
Format version                           : Version 2
File size                                : 1.13 GiB
Duration                                 : 44mn 15s
Overall bit rate                         : 3 648 Kbps
Writing application                      : Larry Sanders
Writing library                          : Larry Sanders

Video
ID                                       : 1
Format                                   : AVC
Format/Info                              : Advanced Video Codec
Format profile                           : High@L4.1
Format settings, CABAC                   : Yes
Format settings, ReFrames                : 5 frames
Codec ID                                 : V_MPEG4/ISO/AVC
Duration                                 : 44mn 15s
Bit rate                                 : 3 191 Kbps
Width                                    : 1 280 pixels
Height                                   : 720 pixels
Display aspect ratio                     : 16:9
Frame rate mode                          : Constant
Frame rate                               : 25.000 fps
Color space                              : YUV
Chroma subsampling                       : 4:2:0
Bit depth                                : 8 bits
Scan type                                : Progressive
Bits/(Pixel*Frame)                       : 0.139
Stream size                              : 1 010 MiB (87%)
Writing library                          : x264 core 130 r2273 b3065e6

Language                                 : English
Default                                  : Yes
Forced                                   : No

Audio
ID                                       : 2
Format                                   : AC-3
Format/Info                              : Audio Coding 3
Mode extension                           : CM (complete main)
Format settings, Endianness              : Big
Codec ID                                 : A_AC3
Duration                                 : 44mn 15s
Bit rate mode                            : Constant
Bit rate                                 : 384 Kbps
Channel(s)                               : 6 channels
Channel positions                        : Front: L C R, Side: L R, LFE
Sampling rate                            : 48.0 KHz
Bit depth                                : 16 bits
Compression mode                         : Lossy
Stream size                              : 122 MiB (11%)
Default                                  : Yes
Forced                                   : No

